<svg xmlns="http://www.w3.org/2000/svg" viewBox="0 0 100 100">
  <path 
    d="M 50 5 L 54 35 L 50 42 L 46 35 Z M 50 95 L 54 65 L 50 58 L 46 65 Z" 
    fill="black" 
  />
  <circle cx="50" cy="50" r="10" fill="black" />
  <g fill="none" stroke="black" stroke-width="2.5" stroke-linecap="round">
    <path d="M 35 35 A 21 21 0 0 0 35 65" opacity="0.4" />
    <path d="M 65 35 A 21 21 0 0 1 65 65" opacity="0.4" />
    <path d="M 28 28 A 31 31 0 0 0 28 72" opacity="0.25" />
    <path d="M 72 28 A 31 31 0 0 1 72 72" opacity="0.25" />
    <path d="M 21 21 A 41 41 0 0 0 21 79" opacity="0.1" />
    <path d="M 79 21 A 41 41 0 0 1 79 79" opacity="0.1" />
  </g>
</svg>
